<svg xmlns="http://www.w3.org/2000/svg" width="24" height="24" preserveAspectRatio="none">
  <defs>
    <symbol id="linkedIn" viewBox="0 0 24 24">
      <path fill="currentColor" d="M19 0h-14c-2.761 0-5 2.239-5 5v14c0 2.761 2.239 5 5 5h14c2.762 0 5-2.239 5-5v-14c0-2.761-2.238-5-5-5zm-11 19h-3v-11h3v11zm-1.5-12.268c-.966 0-1.75-.79-1.75-1.764s.784-1.764 1.75-1.764 1.75.79 1.75 1.764-.783 1.764-1.75 1.764zm13.5 12.268h-3v-5.604c0-3.368-4-3.113-4 0v5.604h-3v-11h3v1.765c1.396-2.586 7-2.777 7 2.476v6.759z"/>
    </symbol>
    <symbol id="medium" viewBox="0 0 24 24">
      <path fill="currentColor" d="M19 24h-14c-2.761 0-5-2.239-5-5v-14c0-2.761 2.239-5 5-5h14c2.762 0 5 2.239 5 5v14c0 2.761-2.237 4.999-5 5zm.97-5.649v-.269l-1.247-1.224c-.11-.084-.165-.222-.142-.359v-8.998c-.023-.137.032-.275.142-.359l1.277-1.224v-.269h-4.422l-3.152 7.863-3.586-7.863h-4.638v.269l1.494 1.799c.146.133.221.327.201.523v7.072c.044.255-.037.516-.216.702l-1.681 2.038v.269h4.766v-.269l-1.681-2.038c-.181-.186-.266-.445-.232-.702v-6.116l4.183 9.125h.486l3.593-9.125v7.273c0 .194 0 .232-.127.359l-1.292 1.254v.269h6.274z"/>
    </symbol>
  </defs>
</svg>